<?xml version="1.0" encoding="UTF-8"?>
<svg width="214px" height="199px" viewBox="0 0 214 199" version="1.1" xmlns="http://www.w3.org/2000/svg" xmlns:xlink="http://www.w3.org/1999/xlink">
    <title>Grupo</title>
    <defs>
        <path d="M0,0 L213.475962,0 L213.475962,198.430735 L0,198.430735 L0,0 Z" id="path-1"></path>
    </defs>
    <g id="Página-1" stroke="none" stroke-width="1" fill="none" fill-rule="evenodd">
        <g id="Grupo" transform="translate(0, -0)" xlink:href="#path-1" fill="#000000">
            <g transform="translate(106.738, 99.2154) scale(-1, 1) rotate(-180) translate(-106.738, -99.2154)translate(0, 0)">
                <path d="M99.3213994,198.213439 C86.3267324,197.382729 74.4594566,194.119229 61.9394807,187.888909 C48.9448137,181.421243 38.0862563,172.698796 29.1264631,161.543557 C24.7949075,156.143946 19.0392787,147.421498 19.5733061,147.06548 C19.6919789,146.946807 21.1753883,146.353444 22.7774706,145.700743 L25.7442895,144.514016 L28.473763,148.667562 C50.9622506,183.320008 92.7943977,199.222157 131.897071,187.888909 C153.732859,181.539916 172.7205,167.299185 184.765785,148.133535 C186.011849,146.175434 187.079904,144.514016 187.13924,144.395343 C187.257913,144.27667 192.894869,146.650125 193.310224,147.006144 C193.666242,147.302826 189.453359,154.067173 185.715167,159.110765 C181.146266,165.341085 170.940409,175.309596 164.413407,179.878498 C144.951075,193.585201 123.411969,199.696848 99.3213994,198.213439 Z" id="Trazado" fill-rule="nonzero"></path>
                <path d="M99.6774177,173.402114 C91.7856793,171.266004 85.4366867,166.044403 81.7578312,158.627356 C79.5030488,154.117791 79.2657033,153.109072 78.9690214,148.06548 C78.6130031,141.123124 79.9777399,135.960859 83.6565954,130.501912 C87.9288146,124.093583 94.7524982,119.8807 102.940919,118.515963 C113.028103,116.854545 124.005333,121.838801 129.879635,130.561248 C133.439817,135.960859 134.86389,141.18246 134.507872,147.946807 C134.270527,152.753054 133.914508,154.117791 132.075081,158.033992 C126.200779,170.316622 112.494076,176.843624 99.6774177,173.402114 Z M115.282885,164.27303 C119.614441,162.255593 122.818605,159.229438 125.192061,154.838546 C127.031488,151.337699 127.209497,150.744336 127.209497,145.463398 C127.209497,140.597815 126.972152,139.351751 125.607415,136.444268 C123.708651,132.409394 119.733114,128.374521 115.816913,126.41642 C113.621467,125.348365 111.722703,124.992347 107.50982,124.814338 C102.406891,124.576992 101.754191,124.695665 98.1940082,126.357084 C93.5064343,128.55253 89.8869151,132.053376 87.8101419,136.503605 C86.5047415,139.351751 86.267396,140.597815 86.267396,145.463398 C86.267396,150.447654 86.4454052,151.456372 87.9288146,154.185846 C91.0143063,160.119483 95.4051984,163.739003 101.338836,165.459758 C105.255037,166.527812 111.426021,165.993785 115.282885,164.27303 Z" id="Forma" fill-rule="nonzero"></path>
                <path d="M10.0201491,139.826442 C2.42509261,137.39365 -1.66911754,129.383239 0.645001238,121.491501 C1.71305606,117.990654 6.51930275,113.30308 10.1981582,112.294362 C13.5209955,111.34498 17.7932147,111.700998 20.8787065,113.184408 L23.0148161,114.193126 L29.423145,111.166971 C42.3584756,105.055324 53.7510604,101.079786 67.8731186,97.6976128 C76.4175571,95.6208396 90.7176244,93.3067208 95.4645348,93.188048 C101.754191,93.0693753 103.000255,95.5615032 80.8084492,62.5704765 L60.7527531,32.7242779 L57.7265978,33.0802962 C53.0390238,33.6143236 48.529459,32.0715777 45.3252946,28.8674133 C38.6202838,22.2217388 40.0443568,11.4225179 48.2921135,6.31958928 C50.7842414,4.77684342 51.7336235,4.53949791 55.3531426,4.53949791 C61.7614715,4.59883429 66.0930272,7.32830772 68.7038279,13.1432729 C70.4839192,17.0594739 70.3059101,21.0943476 68.2291368,25.3072305 L66.4490455,28.7487405 L83.7159317,54.3227198 C106.85712,88.7378196 106.323092,87.9071103 106.797783,87.9071103 C106.975792,87.9071103 112.078721,80.6087357 118.071695,71.7676152 C124.005333,62.8671584 133.024463,49.5164731 138.008718,42.0400894 L147.146521,28.5707314 L146.01913,26.9093128 C141.153547,19.90762 143.705011,9.93910839 151.478076,5.84489824 C155.275605,3.88679774 161.327915,4.0054705 165.066107,6.20091652 C174.975283,12.0158817 174.678601,26.315949 164.591416,31.4782139 C162.158625,32.7836143 160.912561,33.0209598 157.174369,32.9616234 L152.664804,32.8429507 L132.668444,62.6298129 L112.672085,92.3573387 L121.27586,93.0693753 C132.25309,93.9000846 140.085492,95.2054849 149.816658,97.6976128 C162.277297,100.961114 175.449974,106.123379 185.359149,111.700998 L190.165396,114.371135 L193.072878,113.006399 C200.489925,109.624225 209.034364,113.006399 212.357201,120.660791 C216.866766,131.163331 207.016927,142.852597 195.802352,140.123124 C189.038004,138.521042 184.706449,132.884086 184.884458,125.882393 C184.884458,123.746283 185.062467,121.491501 185.18114,120.838801 C185.596494,118.406009 163.701371,108.674843 149.163958,104.758642 C113.56213,95.3241577 73.9254292,99.1810223 35.9501467,115.913881 L27.70239,119.5334 L28.2364174,121.66951 C29.5418178,127.484475 28.1770811,132.587404 24.3795528,136.444268 C20.7600337,140.063787 14.9450686,141.428524 10.0201491,139.826442 Z M18.6832604,132.053376 C20.4633518,130.866649 21.590743,128.433857 21.5314066,125.823056 C21.2940611,116.9226 8.18072136,116.447909 7.2313393,125.348365 C6.57863913,131.460012 13.4023227,135.494886 18.6832604,132.053376 Z M203.04139,132.290722 C204.643472,131.460012 206.423563,128.196512 206.423563,126.179075 C206.423563,122.440883 202.685371,118.762027 198.887843,118.762027 C194.793633,118.762027 191.114778,123.330929 191.886151,127.425139 C192.301505,129.679921 195.090315,132.824749 197.107752,133.180767 C198.709834,133.477449 201.55798,133.062095 203.04139,132.290722 Z M58.3792979,25.3665669 C63.0668719,23.4084664 64.2535994,16.9408011 60.5154076,13.6179639 C58.082616,11.4225179 56.0058428,11.0071632 53.1576966,12.0158817 C50.0128685,13.1432729 48.4107863,15.3980553 48.4107863,18.6022197 C48.4107863,21.6877114 49.7161866,23.9424938 52.3269873,25.2478942 C54.7004424,26.3752854 55.8278336,26.4346217 58.3792979,25.3665669 Z M161.09057,25.2478942 C166.727526,22.5777571 166.134162,13.6773003 160.141188,11.8972089 C157.293042,11.0071632 155.334941,11.5411906 152.842813,13.6773003 C151.122058,15.2200461 150.944049,15.7540735 150.944049,18.6615561 C150.944049,22.2810752 152.012104,24.0018302 155.097596,25.3665669 C157.471051,26.4346217 158.657778,26.3752854 161.09057,25.2478942 Z" id="Forma" fill-rule="nonzero"></path>
                <path d="M7.2313393,96.154867 C7.94337585,78.0572714 12.1562587,63.4011858 20.9380428,48.5077547 C24.2608801,42.8707987 30.0165088,35.2164058 34.1700553,30.8255138 L36.2468286,28.6894041 L38.2642655,31.3002048 C39.3916567,32.7242779 40.2817024,34.0890146 40.2817024,34.3263601 C40.2817024,34.5637056 39.3916567,35.6910968 38.2642655,36.8778244 C34.2887281,40.9720346 27.8803992,50.1691733 24.6762347,56.3401567 C18.0898966,69.0381418 14.9450686,81.0240903 14.3517048,95.4428304 L13.9956865,104.402624 L11.3255494,104.817978 C9.90147635,105.055324 8.29939412,105.352006 7.76536671,105.530015 C6.99399378,105.886033 6.9346574,104.758642 7.2313393,96.154867 Z" id="Trazado" fill-rule="nonzero"></path>
                <path d="M201.913999,104.995987 L198.887843,104.402624 L198.531825,95.383494 C198.11647,85.1776369 196.751734,77.9385986 193.606906,68.8007963 C189.750041,57.645557 183.69773,47.2616907 175.746655,38.2425611 L172.542491,34.5043693 L174.737937,31.8342322 C177.408074,28.6894041 176.992719,28.4520586 183.816403,36.8778244 C194.318942,49.9318278 201.320635,65.2999499 204.34679,81.8547996 C205.474181,87.7291012 206.304891,105.76736 205.474181,105.64927 C205.177499,105.589351 203.575417,105.292669 201.913999,104.995987 Z" id="Trazado" fill-rule="nonzero"></path>
                <path d="M74.518793,8.98972633 C73.6287473,7.26897134 72.9167108,5.84489824 72.9167108,5.66688911 C72.9167108,5.31087083 80.2744218,3.17476119 86.2080596,1.92869723 C97.7786535,-0.622767059 114.986203,-0.622767059 126.319452,1.81002448 C133.380481,3.35277033 140.678856,5.48887997 140.44151,5.963571 C140.322837,6.14158014 139.551464,7.62498961 138.780091,9.16773546 C137.593364,11.4818542 137.118673,11.9565453 136.109954,11.6598634 C122.462587,7.56565323 110.357966,6.08224376 98.6686992,7.20963496 C92.2603703,7.80299875 80.5117673,10.1764539 77.0109209,11.600527 C76.2988844,11.8972089 75.6461842,11.2445087 74.518793,8.98972633 Z" id="Trazado" fill-rule="nonzero"></path>
            </g>
        </g>
    </g>
</svg>